<svg width="64" height="64" viewBox="0 0 64 64" fill="none" xmlns="http://www.w3.org/2000/svg">
<circle cx="32" cy="32" r="32" fill="#E63C01"/>
<path d="M41.4743 23.3097C41.0483 23.1054 40.5347 23.2863 40.3305 23.7182C40.1262 24.1442 40.3071 24.6578 40.739 24.862C44.0655 26.4377 45.2443 28.6904 44.9467 32.8806C44.4565 39.7553 39.4201 41.5527 37.2725 42.3231L37.1966 42.3523C36.5838 42.574 35.545 42.7491 34.1211 42.8717C33.7768 42.9008 33.4383 42.8016 33.0473 42.6849C32.6446 42.5682 32.1894 42.4281 31.6525 42.4165C31.0981 42.4048 30.567 42.5448 30.1001 42.6616C29.8025 42.7374 29.5165 42.8133 29.2656 42.8425C26.9721 43.0876 25.0579 41.9146 23.8557 40.8816C21.5272 38.8857 19.8698 35.7343 19.7414 33.0381C19.578 29.6417 21.1887 26.1576 23.5814 24.7628C23.9899 24.5236 24.13 23.9983 23.8907 23.5898C23.6515 23.1813 23.1262 23.0412 22.7177 23.2805C19.7472 25.0138 17.8156 29.0581 18.014 33.1257C18.1657 36.2654 20.0624 39.907 22.7294 42.1889C24.8245 43.9805 27.1413 44.7975 29.4407 44.5524C29.82 44.5115 30.1818 44.4182 30.5262 44.3248C30.9172 44.2197 31.2907 44.1264 31.6058 44.1322C31.9093 44.138 32.2069 44.2256 32.5454 44.3306C32.9656 44.4532 33.4324 44.5932 33.981 44.5932C34.0744 44.5932 34.1678 44.5932 34.2611 44.5816C35.8543 44.4415 37.004 44.2431 37.7685 43.9688L37.8444 43.9396C40.097 43.1343 46.0847 40.9925 46.6566 33.0031C47.0068 28.101 45.4544 25.2005 41.4743 23.3097Z" fill="white"/>
<path d="M39.7758 21.267C38.6261 20.5667 37.4531 20.2165 36.2917 20.2165C35.8132 20.2165 35.3521 20.2807 34.9203 20.3974C34.5059 19.5104 33.6831 19.096 33.1345 18.8218C32.9769 18.74 32.7377 18.6233 32.6501 18.5533C32.5101 18.1915 32.1424 17.9639 31.7514 18.0047C31.4187 18.0397 31.1445 18.2673 31.0336 18.5708C30.9402 18.6583 30.7418 18.8042 30.59 18.921C30.1232 19.2653 29.3412 19.8489 29.0494 20.625C27.5087 20.3916 26.0555 20.806 24.369 21.9965C24.1705 22.1365 24.0422 22.3525 24.013 22.5976C23.9838 22.8427 24.0597 23.082 24.2172 23.2629C24.7892 23.9223 25.6295 24.6051 26.6041 25.0195C25.8863 25.8949 25.5186 26.992 25.612 27.7565C25.6587 28.1184 25.9213 28.4101 26.2773 28.486C27.0652 28.6611 27.9055 28.8245 28.6875 28.8245C29.0144 28.8245 29.3003 28.7953 29.5688 28.737C30.1407 28.6144 31.2612 28.1534 32.0665 27.3947C33.0178 28.2934 34.4009 28.521 34.9495 28.6144C35.358 28.6844 35.8774 28.7194 36.496 28.7194C37.2196 28.7194 37.8207 28.6728 37.8499 28.6669C38.095 28.6494 38.3168 28.5269 38.4627 28.3284C38.6086 28.1359 38.6669 27.8849 38.6203 27.6456C38.5969 27.5173 38.3693 26.3909 37.9841 25.5972C37.8674 25.358 37.7449 25.1537 37.6223 24.9845C38.8654 24.5643 39.7524 23.613 40.1434 22.2416C40.2485 21.8681 40.0909 21.4713 39.7641 21.2728L39.7758 21.267ZM36.0525 23.508C35.7898 23.508 35.5097 23.4846 35.2179 23.4321C34.8036 23.3621 34.4009 23.6014 34.2667 23.9982C34.1324 24.395 34.3017 24.8327 34.6693 25.0312C34.9261 25.1712 35.1537 25.2821 35.3521 25.3813C36.0116 25.7023 36.1867 25.7898 36.4551 26.3442C36.5427 26.5251 36.6244 26.7527 36.7002 26.9862C36.636 26.9862 36.5777 26.9862 36.5077 26.9862C35.9941 26.9862 35.5564 26.957 35.2471 26.9045C33.8815 26.6769 33.1403 26.2217 32.9186 25.5564C32.8019 25.2062 32.475 24.9319 32.1015 24.9319C31.7339 24.9319 31.4012 25.2121 31.2904 25.5622C31.0744 26.2158 29.808 26.8928 29.2186 27.0212C29.0727 27.0504 28.8976 27.0796 28.6992 27.0796C28.3199 27.0796 27.8822 27.027 27.4503 26.9512C27.6896 26.3326 28.2732 25.4864 29.0961 25.323C29.5629 25.2296 29.8664 24.786 29.773 24.3192C29.6855 23.8523 29.2361 23.5488 28.7692 23.6364C28.0398 23.7764 27.0885 23.4438 26.2715 22.8252C27.4853 22.1774 28.4541 22.1074 29.668 22.5392C30.0065 22.6618 30.3858 22.5567 30.6192 22.2824C30.8527 22.0082 30.8877 21.6171 30.7068 21.302C30.5842 21.0919 31.1211 20.6717 31.6288 20.2924C31.7164 20.2282 31.8039 20.1582 31.8915 20.094C32.0549 20.1932 32.2183 20.2749 32.3758 20.3508C33.1403 20.7359 33.4555 20.9519 33.4671 21.588C33.473 21.8914 33.6422 22.1716 33.9048 22.3233C34.1733 22.4692 34.4943 22.4692 34.7627 22.3116C35.1771 22.0665 35.7256 21.9323 36.3034 21.9323C36.9278 21.9323 37.5931 22.0899 38.2584 22.3933C37.8382 23.1345 37.1029 23.5021 36.0641 23.5021L36.0525 23.508Z" fill="white"/>
<path d="M32.7266 22.5975C32.5223 22.5275 32.3356 22.5391 32.2305 22.5508H32.2189C31.7637 22.545 31.3785 22.8951 31.3493 23.3562C31.3201 23.8289 31.6761 24.2374 32.1488 24.2666C32.1722 24.2666 32.1955 24.2666 32.2189 24.2666C32.2656 24.2666 32.3064 24.2666 32.3414 24.2607C32.7266 24.3016 33.1118 24.074 33.246 23.6888C33.4036 23.2395 33.1701 22.7492 32.7208 22.5917L32.7266 22.5975Z" fill="white"/>
<path d="M42.6298 35.4306C42.7056 35.4539 42.7815 35.4597 42.8574 35.4597C43.2367 35.4597 43.581 35.2088 43.6861 34.8295C44.0654 33.4522 44.2755 32.5068 44.007 31.0245C43.9253 30.5576 43.476 30.2483 43.0091 30.33C42.5422 30.4117 42.2329 30.861 42.3146 31.3279C42.5247 32.4834 42.3613 33.1662 42.0287 34.3743C41.9061 34.8295 42.1746 35.3022 42.6298 35.4306Z" fill="white"/>
<path d="M40.8794 36.0437C40.1324 37.5843 37.8739 39.1834 35.7496 39.6794C35.2886 39.7845 35.0026 40.2513 35.1077 40.7124C35.201 41.1092 35.5512 41.3777 35.9422 41.3777C36.0064 41.3777 36.0706 41.3718 36.1406 41.3543C38.8018 40.7299 41.4455 38.8157 42.4259 36.7965C42.636 36.3705 42.4551 35.8569 42.029 35.6468C41.603 35.4367 41.0895 35.6176 40.8794 36.0437Z" fill="white"/>
</svg>
