<svg width="64" height="64" viewBox="0 0 64 64" fill="none" xmlns="http://www.w3.org/2000/svg">
<circle cx="32" cy="32" r="32" fill="#E63C01"/>
<path d="M31.6821 19C24.3361 19 18.3588 24.8323 18.3588 32C18.3588 39.1677 24.3361 45 31.6821 45C39.028 45 45.0053 39.1677 45.0053 32C45.0053 24.8323 39.028 19 31.6821 19ZM31.6821 43.8182C25.0023 43.8182 19.57 38.5177 19.57 32C19.57 25.4823 25.0023 20.1818 31.6821 20.1818C38.3618 20.1818 43.7941 25.4823 43.7941 32C43.7941 38.5177 38.3618 43.8182 31.6821 43.8182ZM31.6821 22.7227C26.4375 22.7227 22.1741 26.8827 22.1741 32C22.1741 37.1173 26.4375 41.2773 31.6821 41.2773C36.9266 41.2773 41.19 37.1173 41.19 32C41.19 26.8827 36.9266 22.7227 31.6821 22.7227ZM31.6821 40.0955C27.1098 40.0955 23.3853 36.4614 23.3853 32C23.3853 27.5386 27.1098 23.9045 31.6821 23.9045C36.2544 23.9045 39.9788 27.5386 39.9788 32C39.9788 36.4614 36.2544 40.0955 31.6821 40.0955ZM17.6927 19C17.3596 19 17.0871 19.2659 17.0871 19.5909V25.2045H15.7547V19.5909C15.7547 19.2659 15.4822 19 15.1491 19C14.816 19 14.5435 19.2659 14.5435 19.5909V25.2045H13.2112V19.5909C13.2112 19.2659 12.9387 19 12.6056 19C12.2725 19 12 19.2659 12 19.5909V25.7955C12 26.9891 12.7086 28.0173 13.732 28.5255C13.4474 28.9568 13.2718 29.5123 13.2718 30.1386V42.5477C13.2718 43.9245 14.0954 45 15.1491 45C16.2029 45 17.0265 43.9245 17.0265 42.5477V30.1386C17.0265 29.5123 16.8509 28.9568 16.5662 28.5255C17.5897 28.0173 18.2983 26.9891 18.2983 25.7955V19.5909C18.2983 19.2659 18.0257 19 17.6927 19ZM15.8153 42.5477C15.8153 43.3218 15.4216 43.8182 15.1491 43.8182C14.8766 43.8182 14.483 43.3218 14.483 42.5477V30.1386C14.483 29.3645 14.8766 28.8682 15.1491 28.8682C15.4216 28.8682 15.8153 29.3645 15.8153 30.1386V42.5477ZM15.1491 27.6864C14.2952 27.6864 13.5746 27.1368 13.3202 26.3864H16.9841C16.7297 27.1368 16.0091 27.6864 15.1552 27.6864H15.1491ZM51.3036 33.4891C51.3399 33.4123 51.3641 33.3295 51.3641 33.2409V19.5909C51.3641 19.2659 51.0916 19 50.7585 19C47.2702 19 46.3376 25.6123 46.3376 29.5182C46.3376 31.5686 46.5799 32.6027 47.2097 33.2114C47.3429 33.3414 47.4883 33.4418 47.6457 33.5186C47.2339 33.9973 46.9735 34.6295 46.9735 35.3327V42.3114C46.9735 43.7945 48.0999 44.9941 49.4868 44.9941C50.8736 44.9941 52 43.7886 52 42.3114V35.3327C52 34.6177 51.7335 33.9677 51.3036 33.4891ZM47.5488 29.5182C47.5488 25.4114 48.5117 21.1923 50.1529 20.3473V32.6559C50.1529 32.6559 50.1045 32.6559 50.0802 32.6559C49.8925 32.6559 49.7229 32.6559 49.5594 32.6559C49.5352 32.6559 49.511 32.65 49.4868 32.65C49.4625 32.65 49.4383 32.6559 49.408 32.6559C48.754 32.6559 48.2998 32.6027 48.0575 32.3664C47.7063 32.0295 47.5428 31.1195 47.5428 29.5123L47.5488 29.5182ZM49.4868 43.8182C48.8266 43.8182 48.2877 43.2509 48.2029 42.5182H50.7706C50.6858 43.2509 50.1408 43.8182 49.4868 43.8182ZM50.7888 41.3364H48.1847V40.0364H50.7888V41.3364ZM50.7888 38.8545H48.1847V37.5545H50.7888V38.8545ZM50.7888 36.3727H48.1847V35.3327C48.1847 34.5291 48.7358 33.8791 49.4201 33.8377C49.4686 33.8377 49.517 33.8377 49.5715 33.8377C50.2498 33.8909 50.7888 34.535 50.7888 35.3327V36.3727Z" fill="white"/>
</svg>
