<svg width="1150" height="867" viewBox="0 0 1150 867" fill="none" xmlns="http://www.w3.org/2000/svg">
<g filter="url(#filter0_dddddd_101_257)">
<path d="M448.789 258.7C448.027 256.927 445.741 255.914 443.709 255.66C429.234 253.634 414.504 253.381 400.028 253.634C383.774 253.634 367.52 254.394 351.267 255.407C319.775 257.18 288.284 259.713 257.046 263.258C242.824 265.031 228.856 266.804 214.635 268.071C208.285 268.83 201.682 269.337 195.333 270.35C189.746 271.11 183.905 272.123 178.318 271.87C176.286 271.87 174.254 273.389 175.27 275.415C176.54 277.695 179.334 278.455 181.619 278.708C188.222 278.708 194.825 277.442 201.174 276.682C209.047 275.415 217.174 274.909 225.047 274.149C241.301 272.376 257.3 270.35 273.554 268.83C289.3 267.057 305.045 265.791 320.791 264.525C336.537 263.258 352.029 262.245 367.774 261.486C381.488 260.979 394.949 260.219 408.663 260.219C411.71 260.219 414.758 260.472 417.805 260.472H420.091H420.345C420.599 260.472 420.599 260.472 420.599 260.472H421.615C423.138 260.726 424.916 260.726 426.44 260.726C428.98 260.726 431.519 260.979 434.059 261.232C434.059 261.739 434.313 262.245 434.821 262.752C436.091 264.272 438.884 265.285 440.662 264.525C443.202 263.765 445.741 263.258 447.773 261.739C449.043 261.232 449.297 259.966 448.789 258.7ZM295.903 274.909C295.141 274.909 294.125 275.162 293.871 275.922L294.125 275.669L293.871 275.922C293.871 275.922 293.617 276.175 293.363 276.428C292.855 276.682 292.855 277.188 292.601 277.695L291.585 280.227C290.824 282 289.808 283.52 289.046 285.04C287.014 288.332 284.728 291.118 282.697 294.411L268.983 315.432C264.411 322.27 259.84 329.362 255.523 336.453L242.57 357.475C230.38 376.976 218.19 397.238 209.301 418.512C208.285 418.512 207.524 419.019 207.016 420.032C206.762 420.792 205.746 421.805 205.492 423.071C205.238 425.351 206.508 426.87 208.031 428.137C209.809 429.656 214.127 430.416 215.142 427.883C220.73 412.94 228.095 398.757 235.967 385.081L248.666 364.313L261.364 343.291C268.729 331.388 276.348 319.737 283.967 307.834C285.998 305.048 288.03 302.009 289.808 298.969C291.585 296.437 293.617 293.904 295.141 291.371C296.919 288.585 298.696 285.799 299.966 282.76C300.474 281.241 301.49 279.468 300.728 277.948C299.966 275.922 297.935 274.909 295.903 274.909Z" fill="#FFE5D3"/>
<path d="M374.425 342.785C370.616 345.824 366.298 348.61 362.235 351.396L347.251 362.287C343.188 365.073 339.124 367.605 335.061 370.138L327.95 374.697L324.14 376.47L322.617 377.483C322.109 377.483 321.855 377.736 321.601 377.736C321.601 377.736 321.347 377.736 321.093 377.989C319.823 378.496 317.791 379.762 317.791 378.243V377.229L318.553 375.203C320.839 368.112 324.902 361.527 328.458 354.689C329.728 352.156 330.997 349.37 331.759 346.584C332.521 344.558 333.029 342.025 332.267 339.999C331.505 337.72 328.204 337.213 326.426 337.72C322.363 338.479 318.553 340.759 315.252 343.291C311.188 346.584 307.379 350.13 303.823 353.929C299.252 358.994 294.681 364.313 290.109 369.378C293.919 361.527 297.982 353.929 301.792 346.331C308.903 332.654 315.76 318.978 324.14 305.808C326.68 301.755 329.474 297.703 332.267 293.904L338.362 285.799C340.14 283.267 341.918 280.734 343.949 278.455L345.473 276.935L346.743 275.922L347.505 275.415C347.759 275.415 347.759 275.415 347.759 275.415C348.267 275.669 349.029 275.669 349.537 275.415L351.314 274.149C351.568 273.896 351.568 273.136 351.314 272.629C351.314 272.629 351.314 272.376 351.06 272.376C350.553 270.857 348.775 270.097 347.251 269.843C341.918 269.337 338.108 273.389 335.061 277.188L330.997 282.76C329.474 285.04 327.95 286.812 326.426 288.839C317.029 301.502 309.41 314.925 302.046 328.855L287.57 356.968C282.744 366.592 277.919 376.216 275.379 386.6C275.125 388.12 276.395 389.133 277.411 389.64C278.935 390.653 281.221 390.906 282.49 389.386C289.601 382.801 295.442 374.697 301.792 367.352C305.347 363.046 309.157 358.994 313.22 354.942C316.775 351.396 319.823 348.357 323.886 345.824C323.886 345.824 323.886 346.077 323.632 346.331C322.363 349.623 320.585 352.916 318.807 356.208L313.474 366.845C312.204 369.631 310.68 372.671 310.172 375.71C309.664 379.002 310.426 381.788 313.474 383.561C317.029 385.587 321.855 384.574 325.41 383.055C330.489 381.029 335.569 377.989 340.14 374.95L352.33 367.099C357.41 363.553 362.489 359.754 367.568 355.955C369.854 354.435 372.139 352.662 374.171 350.89C375.187 350.13 376.203 349.117 377.473 348.357C377.727 347.85 378.235 347.597 378.489 347.344C378.742 347.09 378.996 347.09 378.996 346.837C379.25 346.837 379.758 346.331 379.504 346.584C382.298 344.305 376.457 341.012 374.425 342.785Z" fill="#FFE5D3"/>
<path d="M370.536 366.339C374.854 364.819 379.425 362.033 382.98 359.501C386.79 356.715 390.091 353.675 392.631 350.13C395.171 346.584 397.456 341.519 393.393 338.226C388.568 334.68 381.965 337.213 377.901 339.746C373.076 342.532 368.759 346.077 365.457 349.37C361.648 352.916 357.584 357.728 354.791 362.033C352.505 365.832 349.965 371.151 350.981 375.71C352.505 380.522 357.33 383.308 362.155 383.814C366.219 384.068 370.536 383.561 374.346 382.548C381.457 380.775 389.837 376.723 396.441 373.177C406.091 368.112 414.726 362.287 422.091 357.221L430.218 351.649L431.233 350.89L434.535 348.357C434.789 348.104 435.297 347.597 435.297 347.597L435.805 346.837C436.059 346.077 436.059 345.824 435.805 345.064L435.551 344.811L435.043 344.305C434.281 343.798 434.789 343.798 433.519 343.545C433.519 343.545 432.503 343.291 432.757 343.291H432.503C431.741 343.291 431.234 343.291 430.726 343.545C428.948 344.051 427.17 345.318 425.9 346.077C423.361 348.104 419.805 350.13 417.012 352.156C403.298 361.527 391.869 368.872 379.425 374.444C374.092 376.723 369.774 378.243 363.679 378.749H361.394C360.886 378.749 360.378 378.496 359.87 378.243C358.092 376.723 358.346 374.95 358.346 373.177L358.6 372.164C358.6 371.911 358.854 371.658 358.854 371.404C358.854 371.151 358.854 370.898 359.108 370.645C359.362 369.378 359.87 368.365 360.378 367.352C360.632 367.099 360.632 367.099 360.886 366.845C363.933 368.112 367.997 367.605 370.536 366.339ZM363.425 362.54L364.695 360.767C367.997 356.461 372.06 352.662 376.123 349.117C376.123 349.117 377.139 348.357 377.393 348.104C378.663 347.09 379.679 346.077 381.203 345.064C383.742 343.291 386.028 342.025 388.314 341.519C388.568 343.291 387.552 345.064 387.552 345.064C379.171 357.728 362.409 364.059 363.425 362.54Z" fill="#FFE5D3"/>
<path d="M687.01 241.731L686.502 241.477C686.248 241.477 686.248 241.477 687.01 241.731ZM713.677 255.407C710.629 243.25 697.423 237.932 686.248 235.652C673.55 233.119 659.836 233.879 647.138 235.399C618.186 238.438 589.996 247.809 563.838 260.219C541.489 270.603 520.156 283.773 500.601 298.716C499.331 299.729 499.331 300.996 500.347 302.262C501.871 304.035 503.903 304.288 505.681 304.288H506.188C506.696 304.288 507.204 304.288 507.712 304.541H508.474L509.998 305.048C510.252 305.301 510.76 305.301 510.76 305.554L512.284 306.314C512.538 306.314 512.538 306.314 512.538 306.314L512.791 306.567L514.315 307.834C514.569 307.834 515.077 308.34 515.331 308.594L516.093 309.607C517.109 310.62 517.871 311.633 518.633 312.646C518.887 312.646 518.887 312.899 519.141 313.152C519.141 313.406 519.648 314.166 519.395 313.406L520.156 315.179C520.918 316.192 521.68 317.458 522.188 318.724C524.728 324.043 525.998 328.855 527.013 334.68C528.029 340.759 528.283 347.09 527.775 353.169C527.013 367.605 521.934 381.535 516.347 394.705C513.299 401.797 509.998 408.888 506.696 415.726L497.808 435.481C495.776 439.787 492.22 444.852 492.982 449.918C492.982 450.171 492.982 450.171 492.982 450.424C492.982 450.677 493.236 450.931 493.236 451.184C494.252 454.223 501.617 455.49 501.617 451.437C501.871 449.664 502.379 448.145 502.887 446.625C503.395 444.852 504.157 442.826 504.919 441.053L510.252 430.416C513.807 423.578 517.871 416.739 522.188 410.154C530.569 396.478 539.204 383.055 548.092 369.885C549.362 367.859 550.632 366.086 551.902 364.313L553.68 363.806L557.489 363.046C560.029 362.54 562.822 361.527 565.108 360.767C570.695 359.247 576.282 357.475 581.616 355.702C593.552 351.649 605.234 347.344 616.916 342.532C628.599 337.72 640.027 332.654 651.456 326.829C660.852 322.017 670.503 316.951 679.137 310.62C688.026 304.288 696.153 296.69 702.756 288.079C709.867 279.214 716.47 267.311 713.677 255.407ZM704.026 268.324C702.248 273.896 699.201 278.961 695.391 283.52C691.836 288.332 687.518 292.891 683.201 296.943L680.407 299.476C676.852 302.768 674.566 304.035 672.534 305.554C668.471 308.594 664.154 311.126 659.836 313.912C638.757 326.322 616.155 335.693 593.552 344.051C585.171 347.09 576.536 350.13 568.156 352.916L557.489 355.955C571.711 335.693 586.695 316.192 600.917 295.93L603.71 291.878C605.996 288.585 598.123 285.293 596.091 288.079C580.092 310.62 563.584 332.654 547.838 355.195C542.505 363.046 536.918 370.898 531.839 378.749C532.347 377.229 532.601 375.963 533.109 374.444C536.664 361.527 537.68 348.104 535.394 334.934C533.616 324.043 529.299 312.899 520.918 305.048C518.379 302.768 515.331 300.996 512.284 299.729C533.616 284.026 556.473 270.603 580.6 260.472C606.504 249.329 634.44 241.731 662.376 240.211C665.677 240.211 668.979 239.958 672.28 239.958C672.788 239.958 673.042 239.958 673.55 240.211H673.804H675.836C677.36 240.211 678.884 240.464 680.407 240.717C681.931 240.717 683.455 240.971 684.725 241.224L686.502 241.477C686.756 241.477 687.01 241.731 687.264 241.731C687.518 241.731 688.026 241.984 688.534 241.984C689.804 242.237 691.074 242.744 692.598 243.25L694.375 244.01C693.359 243.503 694.375 243.757 694.629 244.01C694.883 244.01 695.391 244.263 695.645 244.517L697.423 245.276C697.677 245.53 697.931 245.783 698.185 245.783C699.201 246.289 697.423 245.276 698.439 245.783C699.455 246.543 700.47 247.302 701.486 248.316C701.74 248.569 701.994 248.822 701.994 249.075C702.502 249.329 702.756 249.835 703.264 250.342C703.772 251.102 702.756 249.835 703.264 250.595L703.772 251.355L704.534 253.128C704.788 254.141 705.296 255.154 705.296 256.42C705.55 257.687 705.55 259.206 705.55 260.472C705.55 263.005 705.042 265.791 704.026 268.324ZM512.538 306.314C512.284 306.314 512.284 306.314 512.284 306.314C511.522 305.808 512.284 306.314 512.538 306.314ZM510.252 305.301L509.998 305.048C509.744 305.048 509.236 304.795 510.252 305.301ZM507.712 304.541C508.982 304.795 508.22 304.541 507.712 304.541V304.541Z" fill="#FFE5D3"/>
<path d="M681.114 342.532C681.368 340.505 680.352 339.239 679.59 338.733H679.844C678.574 337.973 676.796 337.973 675.78 338.479L671.209 341.772L667.4 345.318C665.114 347.344 663.082 349.876 661.304 352.156C657.749 356.715 654.194 362.54 651.146 368.365C649.622 370.898 648.352 374.19 647.59 376.976C647.083 378.749 647.083 381.029 647.844 382.801C652.416 391.666 668.161 384.828 674.003 382.295C677.304 381.029 681.876 378.749 684.923 377.229C696.097 371.404 704.478 366.086 712.859 360.514C713.621 359.754 715.399 358.994 721.494 354.942C724.287 353.169 726.827 351.649 728.351 349.876C730.636 347.344 725.049 345.064 723.272 345.571C720.224 347.09 717.176 348.863 712.605 352.156C709.811 353.929 706.51 355.702 703.97 357.728L689.24 366.845C688.733 367.352 687.463 367.859 686.701 368.365C683.399 370.391 679.59 372.417 677.304 373.43L672.225 375.963C668.161 377.483 664.098 379.509 660.035 380.522L656.987 381.282C656.225 381.535 655.463 381.535 655.209 380.775C655.209 380.015 655.463 379.002 655.717 377.989C656.479 374.95 658.003 371.911 659.527 369.125C660.543 366.845 662.066 364.059 664.098 361.274C667.4 356.208 671.463 351.649 675.78 347.344L678.574 344.811L679.59 344.051L681.114 342.532ZM682.637 331.135C685.685 331.894 687.971 330.375 690.256 328.855L692.542 327.082L695.082 325.056C696.351 323.79 694.828 322.017 694.066 321.51C693.05 320.497 690.002 319.484 688.479 320.75L686.447 322.523L684.415 324.043L683.145 324.803C682.891 325.056 682.129 325.563 681.876 325.563C680.86 326.322 680.098 327.082 679.844 327.842C679.844 329.362 681.368 330.881 682.637 331.135Z" fill="#FFE5D3"/>
<path d="M732.587 380.269C732.333 380.269 731.317 379.762 731.825 380.015L732.333 380.269C732.333 380.269 732.333 380.269 732.587 380.269ZM811.569 344.558C810.554 344.558 809.792 344.558 809.03 345.318C808.014 346.077 807.506 346.837 806.744 347.597C804.205 349.623 801.919 351.903 799.379 354.182C789.475 362.793 778.3 370.391 767.634 375.203C759.507 379.256 751.888 381.788 744.269 381.788H742.745H741.222C738.174 381.788 735.634 381.282 733.349 380.522C732.841 380.522 732.587 380.269 732.587 380.269C732.587 380.269 732.587 380.269 732.333 380.269C732.333 380.269 732.079 380.269 731.825 380.015L730.301 379.256L729.285 378.749C734.872 373.684 740.206 367.859 745.539 362.54C753.158 356.208 760.777 348.357 769.412 345.571C771.443 345.571 775.761 343.798 773.475 341.519C772.205 339.746 770.173 339.239 768.142 339.492C767.126 339.999 766.11 339.999 765.348 340.505C764.332 340.759 762.808 341.012 761.793 341.265C757.729 341.772 753.666 342.025 749.348 341.772H746.555C746.301 341.772 746.047 341.772 746.047 341.772H745.793H745.031L739.444 341.012C739.19 341.012 739.19 341.012 739.19 341.012C737.92 340.505 738.174 340.252 737.158 339.239C735.634 337.213 731.825 336.2 730.555 337.973C729.539 338.733 728.777 340.252 727.762 341.265C727 341.772 725.73 343.038 725.476 343.798C723.19 346.837 727 348.61 727 348.61C727 348.61 728.016 348.61 729.285 348.357C731.063 347.85 731.571 347.597 732.333 347.09C733.603 345.824 734.365 345.318 735.634 344.811C736.142 345.064 736.65 345.064 737.158 345.318C740.714 346.584 744.523 346.837 748.586 346.837C750.11 347.09 751.634 347.09 752.904 347.09C752.142 347.597 751.38 348.357 750.364 348.863C746.301 352.662 742.237 355.955 738.682 359.501C735.38 362.54 733.095 364.566 730.301 367.605C728.777 369.378 727.254 370.898 725.476 372.417L722.936 374.697L722.174 375.457C722.174 375.71 721.92 375.71 721.666 375.963C715.825 373.684 708.46 372.924 704.905 379.762C704.651 380.522 705.159 381.282 705.413 381.788C708.714 385.081 713.286 386.347 717.603 385.334C720.397 385.081 722.428 383.814 724.714 382.295C729.285 385.081 734.619 386.094 739.698 386.854C742.999 387.107 746.555 387.107 750.364 386.6C757.983 385.841 764.84 383.814 770.935 381.029C784.903 374.19 797.855 365.579 809.03 355.955C811.315 353.929 813.855 351.143 815.633 348.61C817.665 345.824 813.855 344.811 811.569 344.558ZM715.063 380.015L714.048 380.269H714.301L714.809 379.762C715.063 379.762 715.571 379.509 715.063 379.762C715.317 379.762 715.571 379.509 715.825 379.509H716.079L715.317 380.015C715.063 380.015 714.047 380.522 715.063 380.015ZM739.698 341.012C739.444 341.012 739.19 341.012 739.19 341.012H739.444C739.444 341.012 739.444 341.012 739.698 341.012ZM739.952 341.012H739.698C739.952 341.012 740.206 341.265 739.952 341.012Z" fill="#FFE5D3"/>
<path d="M817.903 380.269C817.649 380.269 816.633 379.762 817.141 380.015L817.649 380.269C817.649 380.269 817.649 380.269 817.903 380.269ZM896.885 344.558C895.869 344.558 895.107 344.558 894.346 345.318C893.33 346.077 892.822 346.837 892.06 347.597C889.52 349.623 887.235 351.903 884.695 354.182C874.79 362.793 863.616 370.391 852.95 375.203C844.823 379.256 837.204 381.788 829.585 381.788H828.061H826.537C823.49 381.788 820.95 381.282 818.665 380.522C818.157 380.522 817.903 380.269 817.903 380.269C817.903 380.269 817.903 380.269 817.649 380.269C817.649 380.269 817.395 380.269 817.141 380.015L815.617 379.256L814.601 378.749C820.188 373.684 825.522 367.859 830.855 362.54C838.474 356.208 846.093 348.357 854.727 345.571C856.759 345.571 861.076 343.798 858.791 341.519C857.521 339.746 855.489 339.239 853.458 339.492C852.442 339.999 851.426 339.999 850.664 340.505C849.648 340.759 848.124 341.012 847.108 341.265C843.045 341.772 838.982 342.025 834.664 341.772H831.871C831.617 341.772 831.363 341.772 831.363 341.772H831.109H830.347L824.76 341.012C824.506 341.012 824.506 341.012 824.506 341.012C823.236 340.505 823.49 340.252 822.474 339.239C820.95 337.213 817.141 336.2 815.871 337.973C814.855 338.733 814.093 340.252 813.077 341.265C812.315 341.772 811.046 343.038 810.792 343.798C808.506 346.837 812.315 348.61 812.315 348.61C812.315 348.61 813.331 348.61 814.601 348.357C816.379 347.85 816.887 347.597 817.649 347.09C818.919 345.824 819.68 345.318 820.95 344.811C821.458 345.064 821.966 345.064 822.474 345.318C826.029 346.584 829.839 346.837 833.902 346.837C835.426 347.09 836.95 347.09 838.22 347.09C837.458 347.597 836.696 348.357 835.68 348.863C831.617 352.662 827.553 355.955 823.998 359.501C820.696 362.54 818.411 364.566 815.617 367.605C814.093 369.378 812.569 370.898 810.792 372.417L808.252 374.697L807.49 375.457C807.49 375.71 807.236 375.71 806.982 375.963C801.141 373.684 793.776 372.924 790.221 379.762C789.967 380.522 790.475 381.282 790.729 381.788C794.03 385.081 798.601 386.347 802.919 385.334C805.712 385.081 807.744 383.814 810.03 382.295C814.601 385.081 819.934 386.094 825.014 386.854C828.315 387.107 831.871 387.107 835.68 386.6C843.299 385.841 850.156 383.814 856.251 381.029C870.219 374.19 883.171 365.579 894.346 355.955C896.631 353.929 899.171 351.143 900.949 348.61C902.98 345.824 899.171 344.811 896.885 344.558ZM800.379 380.015L799.363 380.269H799.617L800.125 379.762C800.379 379.762 800.887 379.509 800.379 379.762C800.633 379.762 800.887 379.509 801.141 379.509H801.395L800.633 380.015C800.379 380.015 799.363 380.522 800.379 380.015ZM825.014 341.012C824.76 341.012 824.506 341.012 824.506 341.012H824.76C824.76 341.012 824.76 341.012 825.014 341.012ZM825.268 341.012H825.014C825.268 341.012 825.521 341.265 825.268 341.012Z" fill="#FFE5D3"/>
<path d="M973.566 345.318C972.296 344.558 970.265 344.305 968.487 345.318C957.82 354.689 947.662 364.059 935.218 370.645C929.885 373.43 925.567 375.963 920.488 377.483C914.393 379.256 910.583 375.203 912.361 370.645L913.123 368.112C913.885 365.326 915.409 362.033 916.932 358.994C917.44 357.728 918.456 356.461 919.218 355.195C924.043 347.85 925.059 347.597 927.091 345.064C927.345 344.558 927.853 344.305 928.107 343.798C928.615 343.291 929.377 342.278 929.377 341.772V341.519C929.377 338.733 923.535 336.96 921.758 338.986C920.234 341.265 917.948 343.291 916.171 345.571L915.917 345.824L908.044 352.916L893.314 368.618C891.028 371.151 888.489 373.684 885.695 375.963C883.663 377.989 881.632 379.256 878.838 380.775C878.584 381.029 878.33 381.029 878.076 381.029C877.314 379.002 877.822 376.723 878.584 374.697C880.108 369.885 883.409 366.086 886.457 362.54C889.504 358.741 893.314 355.448 896.361 352.916C899.917 350.383 903.726 348.104 907.79 346.331C907.282 346.584 908.552 346.077 908.806 346.077C909.06 345.824 909.568 346.077 909.822 345.824C909.822 345.824 909.821 345.824 910.075 345.824C910.583 346.077 910.837 346.331 911.345 346.331C912.869 347.09 914.901 347.09 915.663 345.318C916.932 342.532 913.631 340.759 911.345 339.999C909.314 339.746 906.774 340.252 904.996 340.759C899.663 342.532 895.346 344.558 891.536 347.344C886.203 351.143 881.632 355.702 877.568 360.767C874.013 365.579 870.203 370.645 869.949 376.976C869.949 379.762 870.965 382.801 873.251 384.574C876.552 386.854 880.108 386.854 883.155 385.587C885.949 384.574 888.235 383.308 890.266 381.535C892.806 379.762 895.092 376.723 897.631 374.444C900.425 371.911 902.964 369.631 905.25 366.845C904.234 370.391 903.726 374.444 905.758 377.483C909.06 383.055 916.932 383.814 923.028 383.055C926.837 382.295 930.392 380.775 940.551 375.203C943.853 373.43 945.884 371.911 950.202 369.125C959.598 363.046 967.217 356.208 975.598 348.863C976.868 347.85 974.836 345.824 973.566 345.318Z" fill="#FFE5D3"/>
</g>
<defs>
<filter id="filter0_dddddd_101_257" x="-237.776" y="-178.776" width="1626.55" height="1045.55" filterUnits="userSpaceOnUse" color-interpolation-filters="sRGB">
<feFlood flood-opacity="0" result="BackgroundImageFix"/>
<feColorMatrix in="SourceAlpha" type="matrix" values="0 0 0 0 0 0 0 0 0 0 0 0 0 0 0 0 0 0 127 0" result="hardAlpha"/>
<feOffset/>
<feGaussianBlur stdDeviation="4.914"/>
<feColorMatrix type="matrix" values="0 0 0 0 1 0 0 0 0 0 0 0 0 0 0.14902 0 0 0 1 0"/>
<feBlend mode="normal" in2="BackgroundImageFix" result="effect1_dropShadow_101_257"/>
<feColorMatrix in="SourceAlpha" type="matrix" values="0 0 0 0 0 0 0 0 0 0 0 0 0 0 0 0 0 0 127 0" result="hardAlpha"/>
<feOffset/>
<feGaussianBlur stdDeviation="9.828"/>
<feColorMatrix type="matrix" values="0 0 0 0 1 0 0 0 0 0 0 0 0 0 0.14902 0 0 0 1 0"/>
<feBlend mode="normal" in2="effect1_dropShadow_101_257" result="effect2_dropShadow_101_257"/>
<feColorMatrix in="SourceAlpha" type="matrix" values="0 0 0 0 0 0 0 0 0 0 0 0 0 0 0 0 0 0 127 0" result="hardAlpha"/>
<feOffset/>
<feGaussianBlur stdDeviation="34.398"/>
<feColorMatrix type="matrix" values="0 0 0 0 1 0 0 0 0 0 0 0 0 0 0.14902 0 0 0 1 0"/>
<feBlend mode="normal" in2="effect2_dropShadow_101_257" result="effect3_dropShadow_101_257"/>
<feColorMatrix in="SourceAlpha" type="matrix" values="0 0 0 0 0 0 0 0 0 0 0 0 0 0 0 0 0 0 127 0" result="hardAlpha"/>
<feOffset/>
<feGaussianBlur stdDeviation="68.796"/>
<feColorMatrix type="matrix" values="0 0 0 0 1 0 0 0 0 0 0 0 0 0 0.14902 0 0 0 1 0"/>
<feBlend mode="normal" in2="effect3_dropShadow_101_257" result="effect4_dropShadow_101_257"/>
<feColorMatrix in="SourceAlpha" type="matrix" values="0 0 0 0 0 0 0 0 0 0 0 0 0 0 0 0 0 0 127 0" result="hardAlpha"/>
<feOffset/>
<feGaussianBlur stdDeviation="117.936"/>
<feColorMatrix type="matrix" values="0 0 0 0 1 0 0 0 0 0 0 0 0 0 0.14902 0 0 0 1 0"/>
<feBlend mode="normal" in2="effect4_dropShadow_101_257" result="effect5_dropShadow_101_257"/>
<feColorMatrix in="SourceAlpha" type="matrix" values="0 0 0 0 0 0 0 0 0 0 0 0 0 0 0 0 0 0 127 0" result="hardAlpha"/>
<feOffset/>
<feGaussianBlur stdDeviation="206.388"/>
<feColorMatrix type="matrix" values="0 0 0 0 1 0 0 0 0 0 0 0 0 0 0.14902 0 0 0 1 0"/>
<feBlend mode="normal" in2="effect5_dropShadow_101_257" result="effect6_dropShadow_101_257"/>
<feBlend mode="normal" in="SourceGraphic" in2="effect6_dropShadow_101_257" result="shape"/>
</filter>
</defs>
</svg>
